# xmcd
#
# Track frame offsets: 
#        150
#        23098
#        38924
#        63484
#        81352
#        96954
#        115906
#        138936
#        153892
#
# Disc length: 2299 seconds
#
# Revision: 0
# Processed by: cddbd v1.5.2PL0 Copyright (c) Steve Scherf et al.
# Submitted via: ExactAudioCopy v0.99pb5
#
DISCID=6e08f909
DTITLE=The Modulations - It's Rough Out Here
DYEAR=1975
DGENRE=Soul
TTITLE0=Rough Out Here
TTITLE1=Head On Collision With Heartbreak
TTITLE2=Love At Last
TTITLE3=I'll Always Love You
TTITLE4=I'm Hopelessly In Love
TTITLE5=I Can't Fight Your Love
TTITLE6=Worth Your Weight In Gold
TTITLE7=Those Were The Best Days Of My Life
TTITLE8=Share What You Got, Keep What You Need
EXTD=
EXTT0=
EXTT1=
EXTT2=
EXTT3=
EXTT4=
EXTT5=
EXTT6=
EXTT7=
EXTT8=
PLAYORDER=
